<svg xmlns="http://www.w3.org/2000/svg" viewBox="0 0 123.81 97.84"><defs><style>.cls-1{fill:#004899;}.cls-2{fill:#fff;}.cls-3{fill:#e30613;}.cls-4{fill:#f39200;}.cls-5{fill:#fdc300;}.cls-6{fill:#2a2522;}.cls-7{fill:#1d1d1b;}</style></defs><g id="Capa_2" data-name="Capa 2"><g id="Capa_1-2" data-name="Capa 1"><path class="cls-1" d="M123.63,40h0a8.81,8.81,0,0,0-3-4.83,7.24,7.24,0,0,0-.3-1.93A8.34,8.34,0,0,0,115.1,28c-3-1.23-7.91-1.72-12.5-1.11a11.27,11.27,0,0,0-6.28-5.69,8.38,8.38,0,0,0-8.62,1.4,6.7,6.7,0,0,0-1.89,3.09l-.71-.49c1.7-5.45-.85-10.76-1.42-11.85a5.84,5.84,0,0,0-3.48-2.85A15.86,15.86,0,0,0,70.1,5h0a5.9,5.9,0,0,0-1.63.07,10.49,10.49,0,0,0-4-.78,13.78,13.78,0,0,0-8.22,2.57l0,0C54.19,2.76,50.83.29,47,0c-2.43-.17-7.15.49-11.45,6.7a26.53,26.53,0,0,0-2.16,3.92A11.61,11.61,0,0,0,32,10.13L31.48,10a8.6,8.6,0,0,0-4.39-1.77c-2.1-.29-6.41-.14-9.23,2.2-3.78,3.13-5.31,6.32-4.56,9.5,0,.1,0,.22-.05.31-.08.43-.18,1-.24,1.57a15.65,15.65,0,0,0,.62,4.74c.12.51.32,1.43.44,2.07a53.54,53.54,0,0,1-6.48,1.41,6.74,6.74,0,0,0-3.65,1.79C2.7,33,.54,35.75.07,40.76c-.84,9,5.6,14.49,12.08,15.1.36,0,.74,0,1.12,0q4.36,0,10.12-3.07a41,41,0,0,0-.34,5.23,39.77,39.77,0,1,0,79.53,0c0-1,0-2.1-.12-3.13a25.84,25.84,0,0,1,11.15-1.45c2.2.17,4.94.38,7.2-1.72a6.51,6.51,0,0,0,2.08-4.84,7.86,7.86,0,0,0-.17-1.56,7,7,0,0,0,.91-5.36"/><path class="cls-2" d="M61.87,28.75a2.53,2.53,0,0,0,.06.56,2.3,2.3,0,0,0,1,1.63,2.06,2.06,0,0,0,1.1.33A3.28,3.28,0,0,0,65.32,31a4.41,4.41,0,0,0,.65-.33,6.07,6.07,0,0,0,1.41-1.24,4.71,4.71,0,0,0,.49-.66,5.76,5.76,0,0,0,.37-.63,5.5,5.5,0,0,0,.65-2.6,2.82,2.82,0,0,0-.68-1.9,1.93,1.93,0,0,0-.35-.29,1.77,1.77,0,0,0-.63-.27,2.35,2.35,0,0,0-.54-.07,3.32,3.32,0,0,0-1.25.27,5.08,5.08,0,0,0-1,.58,6.13,6.13,0,0,0-1.55,1.65,5.85,5.85,0,0,0-1,3.24m3.34-.61v0l.06-.06,0,0,.08-.07a.42.42,0,0,0,.42.42.43.43,0,0,0,.34-.16.47.47,0,0,0,.08-.26.59.59,0,0,0,0-.13.94.94,0,0,1,.37.22.91.91,0,0,1,.27.65.92.92,0,0,1-.92.93.91.91,0,0,1-.75-.4.88.88,0,0,1-.17-.53.87.87,0,0,1,.21-.57"/><path class="cls-2" d="M117.18,42.26a2.43,2.43,0,0,0-.74-1.23c-1.53-1.5-5.14-2.49-9.36-2.45h0a.37.37,0,0,1-.21-.06.4.4,0,0,1-.19-.33.5.5,0,0,1,0-.12.39.39,0,0,1,.15-.21.34.34,0,0,1,.22-.07,24,24,0,0,1,2.86.12l.66.07c.86-.27,1.55-.5,2.09-.72,1-.43,1.49-.8,1.33-1.32a1.16,1.16,0,0,0-.27-.46,3.89,3.89,0,0,0-1.36-.85c-3.37-1.37-10.65-1.29-14.33.76h0a.46.46,0,0,1-.2.05.4.4,0,0,1-.29-.15.37.37,0,0,1-.09-.27,12.5,12.5,0,0,0-.09-2.12,8.11,8.11,0,0,0-.62-2.16,5.25,5.25,0,0,0-2.13-2.47,5,5,0,0,0-.77-.35,3.68,3.68,0,0,0-.84-.21,1.82,1.82,0,0,0-1.42.29h0l0,0a.63.63,0,0,0-.12.63,12.53,12.53,0,0,1,.6,8.41l0,.09v0c-.06.29-1.54,6.38-10.07,8.33a4.91,4.91,0,0,0,.57.55,4.08,4.08,0,0,0,2.56,1h.11a.46.46,0,0,1,.16.11h0l0,0a.45.45,0,0,1,.07.28,4.51,4.51,0,0,1-.28,1,6.11,6.11,0,0,1-1.92,2.57l0,0-.16.12a8.12,8.12,0,0,1-.72.46.45.45,0,0,1-.19.05l-.12,0a.41.41,0,0,1-.22-.17v0a.35.35,0,0,1-.05-.13.4.4,0,0,1,.2-.41,1.88,1.88,0,0,0,.24-.14,5.3,5.3,0,0,0,2.4-3.08,5.6,5.6,0,0,1-3.68-2.38v0c-3.72-4.91-4.31-15.72-4.39-18.18h-.08a.42.42,0,0,1-.24-.09h0A.45.45,0,0,1,76,27c0-.08-1.7-7.67-7.3-7.41-3,0-5.32,3-5.34,3h0a.43.43,0,0,1-.33.15.61.61,0,0,1-.13,0,1.54,1.54,0,0,1,.31.25l.13.13a2.45,2.45,0,0,1,.31.41l.31-.24a5.45,5.45,0,0,1,1.19-.68,3.62,3.62,0,0,1,2.35-.23,3,3,0,0,1,.81.36,2.88,2.88,0,0,1,1.16,1.54,4.12,4.12,0,0,1,.22,1.3,4.86,4.86,0,0,1-.07,1,7,7,0,0,1-.29,1.13l.54,0a6.41,6.41,0,0,1,3.67,1.51,5.54,5.54,0,0,1,1.06,1.3,6.87,6.87,0,0,1,.84,2.68,9.64,9.64,0,0,1,.08,1.1A8.22,8.22,0,0,1,75,37.18a6,6,0,0,1-1.93,2.66l-.24.17-.1.06-.19.13a5.27,5.27,0,0,1,.34,2.54,5.64,5.64,0,0,1-2.57,3.8l-.06,0-.13,0h-.1a.16.16,0,0,1-.09,0l-.08,0h0a.38.38,0,0,1-.13-.25,2,2,0,0,0-.71-1.3l-.1-.09A5.54,5.54,0,0,1,69,46.44c-.43,3.67-4.12,4.55-5.47,4.75l-.5.05h0a.37.37,0,0,1-.18,0,.47.47,0,0,1-.15-.13.38.38,0,0,1-.05-.31.29.29,0,0,1,0-.09,3.09,3.09,0,0,0,.11-1.82l-.19.1a3.48,3.48,0,0,1-.83.32,4.79,4.79,0,0,1-1.06.12A6.45,6.45,0,0,1,58.49,49a7,7,0,0,1-.81-.36.43.43,0,0,1-.12-.11l0,0a.36.36,0,0,1-.06-.2.37.37,0,0,1,0-.15.34.34,0,0,1,.17-.2,2.73,2.73,0,0,0,.89-.79,6.52,6.52,0,0,0,.92-3.75,3.42,3.42,0,0,0-1-1.7,9.48,9.48,0,0,1-.58,1.64,19,19,0,0,1-4,5.54l-.52.51-.27.25a33.83,33.83,0,0,1-3.35,2.73c-.86.61-1.78,1.21-2.74,1.8A6.28,6.28,0,0,0,48,55a.39.39,0,0,1,.15.39.37.37,0,0,1-.07.16.4.4,0,0,1-.32.17.33.33,0,0,1-.19-.06l0,0h0a6,6,0,0,1-1.36-1.35l-.05-.06,0-.07v0a.33.33,0,0,1,0-.22.14.14,0,0,1,0-.06.38.38,0,0,1,.16-.19c1.29-.77,2.49-1.56,3.6-2.38a32.31,32.31,0,0,0,3-2.52c.4-.39.76-.76,1.1-1.13l-.68-.3A17,17,0,0,1,44.62,37a.66.66,0,0,1,0-.14v-.09a13.78,13.78,0,0,1,.62-4.19A9.83,9.83,0,0,1,47,29.26l0-.06a.56.56,0,0,0,0-.56s0,0,0,0l0-.07A2.32,2.32,0,0,0,45,28a4.34,4.34,0,0,0-1.18.29,6.14,6.14,0,0,0-3.09,3.44c0,.15-.12.33-.18.53s-.16.52-.24.8c-.13.47-.25.94-.31,1.24a.37.37,0,0,1-.22.28.34.34,0,0,1-.24,0,.39.39,0,0,1-.32-.47v-.06l0-.09c-1,.93-1.92,1.85-2.88,2.74-.63.6-1.27,1.19-1.9,1.77-2,1.86-4,3.53-5.89,5a32.07,32.07,0,0,1,13,9.56,18.54,18.54,0,0,1,3,4.28l.13-.2c.11-.18.23-.36.35-.53a.41.41,0,0,1,.43-.16l.12.06a.34.34,0,0,1,.12.12.38.38,0,0,1,0,.43c-.11.16-.21.32-.31.49l-.05.07a.25.25,0,0,0,0,.07,24.35,24.35,0,0,0-2.13,3.45c-.87,2.14-2.12,3.68-1.62,7.74.08.61.17,1.07.2,1.66l.19.36a23.92,23.92,0,0,0,37.43,5.89c-.1-.44-.26-1.12-.3-1.43a16.22,16.22,0,0,1,3.08-11.84c.49-.66,1-1.29,1.5-1.9a32.92,32.92,0,0,1,7.51-6.73h0l.73-.51.67-.46.07-.05a33.64,33.64,0,0,1,12.84-5.44c.6-.11,1.18-.19,1.73-.25l1-.09c.72-.05,1.39-.08,2-.08,1.37,0,2.54.08,3.52.16a17.18,17.18,0,0,0,1.77.08,2.29,2.29,0,0,0,.39,0,.78.78,0,0,0,.35-.13.11.11,0,0,0,0-.05h0a.52.52,0,0,0,0-.23c0-1.13-1.17-2.14-3.17-2.85a15.54,15.54,0,0,0-2.55-.64.41.41,0,0,1-.33-.47.39.39,0,0,1,.27-.3.41.41,0,0,1,.19,0c.51.09,1,.19,1.43.31s.59.16.87.24h.11c2.09-.34,3.6-.58,4-1.16a.65.65,0,0,0,.1-.25,1.44,1.44,0,0,0,0-.44M53.82,63.31a.47.47,0,0,1-.06.15,7.2,7.2,0,0,0-.58,1.05l-.11.23-.2.47c-.06.17-.13.34-.19.52v0h0c-.08.22-.15.45-.22.7s-.07.26-.1.39a14,14,0,0,0,.16,7.26c.13.47.29,1,.48,1.45a.42.42,0,0,1-.06.39.34.34,0,0,1-.09.08l-.08,0,0,0h-.1a.39.39,0,0,1-.37-.25,15.92,15.92,0,0,1-.68-2.18,13.79,13.79,0,0,1,1.5-10.62.25.25,0,0,1,0-.07.4.4,0,0,1,.55-.1.47.47,0,0,1,.1.1v0h0a.16.16,0,0,1,0,.07.41.41,0,0,1,0,.22m9.81-8.94a7.23,7.23,0,0,1-6.73,4.68,4.4,4.4,0,0,1-.63,0l-.07,0a.34.34,0,0,1-.22-.2s0,0,0,0,0,0,0,0a.39.39,0,0,1,0-.28.22.22,0,0,1,.05-.08,2.91,2.91,0,0,0,.59-1.46,6,6,0,0,0-.17-2.19.3.3,0,0,1,0-.16.41.41,0,0,1,.28-.34.4.4,0,0,1,.5.27,6.51,6.51,0,0,1,.2,2.5s0,0,0,.06,0,.17,0,.26a4.25,4.25,0,0,1-.32.95c1.28,0,4.2-.47,5.88-4.22a.35.35,0,0,1,.16-.18.41.41,0,0,1,.36,0l.08,0a.41.41,0,0,1,.12.49m13.23,2.55,0,0a.46.46,0,0,1-.23.16l-.59.12a6.27,6.27,0,0,1-.74,0,5,5,0,0,1-2-.41L73,56.73h0a4.8,4.8,0,0,1-.54-.32,8.39,8.39,0,0,1-2.58-2.86A.41.41,0,0,1,70,53h0a.42.42,0,0,1,.38,0,.52.52,0,0,1,.16.17,3.87,3.87,0,0,0,.2.34,7.86,7.86,0,0,0,1.36,1.65,6.19,6.19,0,0,0,1.06.77,4.23,4.23,0,0,0,2.82.51c0-.17-.11-.37-.16-.61s-.06-.24-.08-.37a9.45,9.45,0,0,1-.15-1.32.4.4,0,0,1,.39-.41h.09a.42.42,0,0,1,.32.38,7.45,7.45,0,0,0,.3,1.89c.06.21.11.37.15.47s0,.09,0,.1a.42.42,0,0,1,0,.33"/><path class="cls-3" d="M71.87,40.58c-.18.08-.35.16-.53.22a8.57,8.57,0,0,1-3,.51c-1.21,0-2.07,1-2.87,2.1l-.27.36a13,13,0,0,1-.89,1.15,3,3,0,0,1-2.21,1.27A2.18,2.18,0,0,1,60.21,45a6.15,6.15,0,0,1-.84,2.42,4,4,0,0,1-.69.8l.27.1.21.07a6.41,6.41,0,0,0,.86.2,3.12,3.12,0,0,0,3.15-1.07.46.46,0,0,1,.22-.14.43.43,0,0,1,.34.08.41.41,0,0,1,.07.56q-.15.18-.3.33a5.31,5.31,0,0,1,.14,1.91c0,.06,0,.11,0,.17a8.93,8.93,0,0,0,1-.24,5.9,5.9,0,0,0,.88-.32,5.68,5.68,0,0,0,.65-.34,4.34,4.34,0,0,0,1.48-1.4,4.19,4.19,0,0,0,.6-1.74,7.17,7.17,0,0,0-.69-3.27.37.37,0,0,1,0-.23.39.39,0,0,1,.24-.29l.1,0a.41.41,0,0,1,.4.21s0,0,0,0c.08.2.15.39.22.58s.08.22.11.33a4.72,4.72,0,0,1,.91.63,3.18,3.18,0,0,1,.87,1.22,4.93,4.93,0,0,0,1.07-1.16,4.1,4.1,0,0,0,.39-3.79"/><path class="cls-4" d="M19.65,27.66A12.14,12.14,0,0,1,20,30.07v.12a19.67,19.67,0,0,0,3.69-.58h0a20.21,20.21,0,0,0,2.78-.9l.09,0,.52-.22a19.48,19.48,0,0,0,3.35-1.87l.18-.12a18,18,0,0,0,2.45-2.09h0c.16-.16.32-.33.47-.51l.11-.21c.48-1,.93-1.94,1.35-2.9.19-.44.38-.87.56-1.3-2-.92-5.09-2.26-5.58-2.39a1.65,1.65,0,0,0-.51,0,2.18,2.18,0,0,1-2.13-1.09l-.09-.11a2.67,2.67,0,0,0-1.38-.51,8.11,8.11,0,0,0-.86-.05h-.13a6.26,6.26,0,0,0-3.44.88,11.88,11.88,0,0,0-1.78,1.77A2.35,2.35,0,0,0,19,19.43a.5.5,0,0,0,0,.12,5.27,5.27,0,0,1,0,2.73c0,.22-.08.44-.11.65s0,.25-.05.37a13,13,0,0,0,.41,2.4l.09.41c.12.56.24,1.08.33,1.55"/><path class="cls-5" d="M69,28.48l-.17.31c-.08.15-.17.3-.26.45a8.91,8.91,0,0,1-.69.9,6.25,6.25,0,0,1-2.23,1.63l-.36.13a3.6,3.6,0,0,1-.44.12,4,4,0,0,1-.76.08,2.85,2.85,0,0,1-1.6-.46,2.92,2.92,0,0,1-1.13-1.43,3.36,3.36,0,0,1-.18-.64A11.55,11.55,0,0,0,54,26.75a3.77,3.77,0,0,0-3.9,2.72,13.22,13.22,0,0,0-.54,4.28,14.53,14.53,0,0,0,.11,1.79c.38,3.45,1.69,7.82,2.68,7.82.22,0,.41-.21.6-.49a6.33,6.33,0,0,0,.42-.78l.24-.44c.4-.75.9-1.44,1.77-1.44a6.34,6.34,0,0,1,1.72.26l.27.08.2.05c.21.06.42.12.66.17l.16,0,.09,0,.3,0a3.4,3.4,0,0,0,.46.06,8.66,8.66,0,0,0,.92,0,7,7,0,0,0,4.89-2.1,13.25,13.25,0,0,0,2.82-4.18h-.11a.38.38,0,0,1-.15,0l-.11,0a.36.36,0,0,1-.18-.28.25.25,0,0,1,0-.08.48.48,0,0,1,.06-.18.4.4,0,0,1,.28-.19,1.83,1.83,0,0,1,.94.13,1.07,1.07,0,0,1,.63.72s0,.05,0,.08a.17.17,0,0,1,0,.07.4.4,0,0,1-.28.34h-.11a.4.4,0,0,1-.29-.14,14.59,14.59,0,0,1-1.1,2,11.16,11.16,0,0,1-.69,1,9.69,9.69,0,0,1-3.47,2.91,7.37,7.37,0,0,1-3.13.7h-.54a3.72,3.72,0,0,1,.19.34,11.65,11.65,0,0,1,.49,1.13,8.16,8.16,0,0,0,.71,1.5,1.34,1.34,0,0,0,1.14.67c.94,0,1.68-1,2.46-2.09,1-1.31,2-2.79,3.78-2.79,2.54,0,5.21-1.12,6.06-4.11a7.85,7.85,0,0,0-.28-5,4.85,4.85,0,0,0-.58-1,4.68,4.68,0,0,0-.57-.61,5.37,5.37,0,0,0-2.61-1.23,5.49,5.49,0,0,0-.74-.09,4.2,4.2,0,0,0-.68,0"/><path class="cls-4" d="M49.38,22.36a9.4,9.4,0,0,0,2.19-8.26c0-.12,0-.24-.08-.37a15,15,0,0,0-1.18-3.19,8.52,8.52,0,0,0-.63-1.08,4.61,4.61,0,0,0-3.45-2.31,4.33,4.33,0,0,0-1,.07l-.09,0-.12,0-.25.07,0,0a5.73,5.73,0,0,0-1.08.49,11.09,11.09,0,0,0-3.22,3.21l-.09.12a25.81,25.81,0,0,0-2.25,4.39c-.3.71-.61,1.45-.92,2.22-2.65,6.45-5.95,14.46-14,18.6C19,38.45,16,39.06,13.76,39.06a10,10,0,0,1-1.63-.12,7.85,7.85,0,0,1-1.35-.33,6,6,0,0,1-.56-.22.41.41,0,0,1-.2-.19.42.42,0,0,1,0-.33.36.36,0,0,1,.29-.23h0a.44.44,0,0,1,.22,0,9.22,9.22,0,0,0,5.33.43h0a20.48,20.48,0,0,0,4.21-1.22c-.08-.3-.2-.73-.32-1.23s-.2-.82-.3-1.27c0-.12-.05-.24-.08-.37-3.43,1.85-10,2.93-11.26,3.13a.65.65,0,0,0-.32.16h0l0,0c-.51.49-1.65,1.91-1.93,5a7.31,7.31,0,0,0,3.35,7.29,7.21,7.21,0,0,0,3.1,1A10.7,10.7,0,0,0,17,49.7c3.54-1.33,9-4.51,16.91-11.74l1.38-1.27c1.14-1.06,2.29-2.16,3.43-3.27l.86-.84h0l0,0c.11-.4.24-.79.34-1.07s.13-.31.2-.46a6.05,6.05,0,0,1,4.7-3.78l0,0c1.8-1.89,3.23-3.48,4.38-4.76Z"/><path class="cls-3" d="M78.56,24.88c1-2.27.35-4.95-.21-6.49a3.45,3.45,0,0,1-.6,1,2.64,2.64,0,0,1-.28.29,4.12,4.12,0,0,1,0,.51c0,.21,0,.42,0,.64a.45.45,0,0,1-.09.25.41.41,0,0,1-.31.14h0a.47.47,0,0,1-.21-.06.42.42,0,0,1-.19-.35,10,10,0,0,0-.08-1.58A8.19,8.19,0,0,0,70,12.27a2.6,2.6,0,0,1,.16.34,4.29,4.29,0,0,1,.34,2.07,3.33,3.33,0,0,1-.13.76c0,.07.07.15.11.22.26.5.44.92.55,1.18s.1.27.11.28,0,.06,0,.08a.46.46,0,0,1-.08.3.34.34,0,0,1-.18.13.35.35,0,0,1-.14,0l-.12,0a.39.39,0,0,1-.25-.25c0-.05-1.87-5.1-5.36-5.86a3.68,3.68,0,0,0-.89-.1,7.67,7.67,0,0,0-6.2,3h0a5.17,5.17,0,0,1,1.07.11,5.72,5.72,0,0,1,3.56,2.42h0l.3.13.4.19a.39.39,0,0,1,.2.27.42.42,0,0,1,0,.27.4.4,0,0,1-.14.15.41.41,0,0,1-.4,0h0c-.14-.07-.27-.14-.42-.2a7.27,7.27,0,0,0-3-.62,3.43,3.43,0,0,0-2.71,1.11c-1.15,1.31-1.27,3.47-1.24,4.65,2.76-2.34,6.36-1.36,7.39-1,.65-.75,2.91-3.09,5.76-3.09A6.44,6.44,0,0,1,70.8,19c.2.06.41.13.61.21l0,0a8.13,8.13,0,0,1,3.69,3.47,14.91,14.91,0,0,1,1.56,3.7,2.6,2.6,0,0,0,1.86-1.56"/><path class="cls-2" d="M62.85,23.71a1.4,1.4,0,0,0-.38-.35c-1.12-.74-2.95.07-4.07,1.79l-.11.18a5.33,5.33,0,0,0-.48,1c0,.09-.06.17-.08.25l.06,0a12.75,12.75,0,0,1,3,1.57l.33.24V28.4c0-.16,0-.33,0-.49s0-.06,0-.1h-.08a.8.8,0,0,1-.73-.48.81.81,0,0,1-.06-.31s0-.08,0-.12a.73.73,0,0,1,.15-.35.91.91,0,0,1,.17-.17h0v0a.36.36,0,0,0,.56.28.34.34,0,0,0,.16-.3.3.3,0,0,0,0-.1h0a.53.53,0,0,1,.21.11c0-.11.09-.22.14-.33a7.28,7.28,0,0,1,.54-1,8.17,8.17,0,0,1,.71-.91l.12-.14a1.85,1.85,0,0,0-.21-.33"/><path class="cls-6" d="M65.18,29.27a.92.92,0,0,0,.76.39.88.88,0,0,0,.51-.15.93.93,0,0,0,.41-.77.91.91,0,0,0-.28-.65.87.87,0,0,0-.37-.22.28.28,0,0,1,0,.13.45.45,0,0,1-.09.25.43.43,0,0,1-.33.17A.42.42,0,0,1,65.4,28l-.09.07v0l-.06.06h0a.92.92,0,0,0-.21.58,1,1,0,0,0,.16.53"/><path class="cls-7" d="M56.91,59.05a7.23,7.23,0,0,0,6.73-4.68.39.39,0,0,0-.13-.48l-.07,0a.36.36,0,0,0-.36,0,.42.42,0,0,0-.17.18c-1.67,3.74-4.59,4.21-5.87,4.22h0a3.77,3.77,0,0,0,.31-1c0-.09,0-.18,0-.27a.11.11,0,0,1,0,0,6.57,6.57,0,0,0-.2-2.51.4.4,0,0,0-.5-.26.37.37,0,0,0-.28.34.38.38,0,0,0,0,.15,5.58,5.58,0,0,1,.17,2.19A3,3,0,0,1,56,58.37a.41.41,0,0,0-.05.09.39.39,0,0,0,0,.28v0h0l0,0a.4.4,0,0,0,.22.2l.07,0a5.85,5.85,0,0,0,.63,0"/><path class="cls-7" d="M76.88,56.59a.39.39,0,0,1,0-.1c0-.08-.08-.2-.13-.37l0-.09a7.62,7.62,0,0,1-.3-1.9.39.39,0,0,0-.33-.37H76a.39.39,0,0,0-.38.41,8.29,8.29,0,0,0,.15,1.32c0,.13.05.25.08.37s.11.44.16.6h0a4.23,4.23,0,0,1-2.82-.51,5.38,5.38,0,0,1-1.06-.77,7.6,7.6,0,0,1-1.36-1.64c-.13-.21-.2-.34-.2-.34a.38.38,0,0,0-.16-.17A.42.42,0,0,0,70,53h0a.4.4,0,0,0-.17.53,8.35,8.35,0,0,0,2.58,2.87c.17.11.35.22.54.32h0l.34.15a4.82,4.82,0,0,0,2,.42,4.71,4.71,0,0,0,.74-.06c.19,0,.39-.06.59-.11a.48.48,0,0,0,.23-.17l0,0a.45.45,0,0,0,0-.34"/><path class="cls-7" d="M53.81,63.09s0,0,0-.06h0l-.1-.1a.39.39,0,0,0-.55.1l0,.06A13.84,13.84,0,0,0,51.56,73.7a17.32,17.32,0,0,0,.68,2.17.42.42,0,0,0,.38.26l.1,0h0l.08,0a.38.38,0,0,0,.09-.09.4.4,0,0,0,.06-.38c-.19-.5-.35-1-.48-1.45a14,14,0,0,1-.16-7.27c0-.13.06-.26.1-.38s.14-.48.22-.7v0l0,0,.14-.39.05-.12s0-.08,0-.13l.15-.35.11-.23a1.19,1.19,0,0,1,.08-.16,8.16,8.16,0,0,1,.5-.89.35.35,0,0,0,.06-.14.36.36,0,0,0,0-.23"/><path class="cls-7" d="M118,42.1c-.38-1.76-2.54-3.13-5.69-3.82,1.78-.63,2.89-1.28,2.51-2.56a3.24,3.24,0,0,0-2.1-1.82c-3.39-1.38-10.34-1.41-14.43.5a14.14,14.14,0,0,0-.1-1.59,6.6,6.6,0,0,0-4-5.63,3.13,3.13,0,0,0-3.08.25,1.41,1.41,0,0,0-.37,1.5l0,.07a11.66,11.66,0,0,1,.55,7.9,1.3,1.3,0,0,1,0,.15h0a9,9,0,0,1-1.79,3.28,12.4,12.4,0,0,1-4.85,3.51,16.91,16.91,0,0,1-2.71.88c-.63.14-1.27-1.14-1.69-2a26.16,26.16,0,0,1-1.59-5A61.89,61.89,0,0,1,77.27,27.1a3.4,3.4,0,0,0,2-1.9c1.67-3.75-.66-8.25-.76-8.44a.4.4,0,0,0-.47-.19.38.38,0,0,0-.28.41,2.47,2.47,0,0,1-.44,1.61c-1.18-6.45-8.09-7.27-8.17-7.28a.42.42,0,0,0-.39.21.39.39,0,0,0,0,.44,3.78,3.78,0,0,1,.86,2.38l-.29-.43c-1.53-2.15-3.35-3.28-5.29-3.28a8.37,8.37,0,0,0-7.34,4,.4.4,0,0,0,0,.42.39.39,0,0,0,.38.16,4.7,4.7,0,0,1,4,1.26,8.35,8.35,0,0,0-1.66-.17,4.19,4.19,0,0,0-3.31,1.38c-1.87,2.14-1.4,5.95-1.38,6.11a.4.4,0,0,0,.69.22,5.78,5.78,0,0,1,4.76-1.88,9.3,9.3,0,0,1,1.31.17,4.87,4.87,0,0,0-3.83,2.41A6.31,6.31,0,0,0,57,26.38,10.63,10.63,0,0,0,54,26c-5.25,0-5.25,5.66-5.25,7.79A19.53,19.53,0,0,0,49,36.5c.13.92.32,1.9.55,2.85.63,2.53,1.6,4.8,2.8,4.8.87,0,1.31-.86,1.74-1.7S54.86,41,55.38,41a6.09,6.09,0,0,1,1.78.31l.52.15A14.16,14.16,0,0,1,54.49,47a15.13,15.13,0,0,1-7.14-6,17,17,0,0,1-1.3-2.43,12.42,12.42,0,0,1-.63-1.77v-.09a10.85,10.85,0,0,1,2.23-7,.21.21,0,0,0,0-.06,1.35,1.35,0,0,0,0-1.46A2.43,2.43,0,0,0,46,27.26c1.58-1.67,2.86-3.1,3.91-4.27l.09-.1a10.18,10.18,0,0,0,2.37-9A16.21,16.21,0,0,0,51,10.18c-1.18-2.33-2.86-3.69-4.75-3.82-2.22-.15-4.56,1.4-6.62,4.37a38,38,0,0,0-3.25,6.76l-.51,1.24c-1-.46-5-2.25-5.68-2.43a2.67,2.67,0,0,0-.73-.06A1.41,1.41,0,0,1,28,15.5a2.84,2.84,0,0,0-2-.95c-1.6-.22-4,.13-5,1-1.49,1.23-3.16,3-2.68,4.29a4.84,4.84,0,0,1-.07,2.32c-.06.36-.13.74-.17,1.09a14.42,14.42,0,0,0,.51,3.06c.34,1.51.81,3.58.6,4.15a7.07,7.07,0,0,0,.13,2.71c-3.23,1.86-9.91,3-11.23,3.17a1.42,1.42,0,0,0-.75.36c-.55.53-1.88,2.12-2.2,5.49C4.6,47.74,8.33,51,12.29,51.38c.2,0,.41,0,.62,0,3.57,0,8.82-2.59,15-7.32a.45.45,0,0,0,.17.13,28.52,28.52,0,0,1,9.68,6.1c.72.67,1.43,1.38,2.13,2.14.35.38.71.78,1.06,1.19a18.29,18.29,0,0,1,3.15,4.58c-1.47,2.79-3.77,5.45-3.19,10.56,0,0,0,0,0,.06.29.65.61,1.29,1,1.91-.1-.65-.18-1.28-.24-1.94a11.86,11.86,0,0,1,1.66-7.56c.62-1.18,1.36-2.45,2-3.51l0-.07a.35.35,0,0,0,.05-.08l.32-.48a.41.41,0,0,0,0-.44.4.4,0,0,0-.11-.12l-.12-.05a.37.37,0,0,0-.18,0l-.1,0h0a.37.37,0,0,0-.13.12c-.12.18-.24.36-.35.54l-.13.2h0a18.78,18.78,0,0,0-3-4.29c-.45-.53-.91-1-1.38-1.53q-1-1.09-2.1-2.07a29.25,29.25,0,0,0-9.47-5.95h0c1.89-1.48,3.86-3.16,5.89-5,.63-.58,1.27-1.17,1.9-1.77,1-.9,1.92-1.82,2.88-2.75h0l0,.1v.06a.42.42,0,0,0,.05.29.4.4,0,0,0,.26.18.47.47,0,0,0,.24,0,.38.38,0,0,0,.23-.29c.06-.3.18-.76.31-1.24.08-.27.16-.55.24-.79a5.38,5.38,0,0,1,.18-.53,6.07,6.07,0,0,1,3.09-3.44A4.27,4.27,0,0,1,45,28a2.3,2.3,0,0,1,2,.5l.05.06,0,0a.54.54,0,0,1,0,.56l0,.06a9.9,9.9,0,0,0-1.72,3.27,13.69,13.69,0,0,0-.62,4.19v.09a.29.29,0,0,0,0,.13,12.87,12.87,0,0,0,.79,2.17,18.33,18.33,0,0,0,1.32,2.43,16,16,0,0,0,6.51,5.8l.68.31h0c-.34.37-.7.74-1.1,1.12a32.53,32.53,0,0,1-3,2.53c-.4.29-.81.59-1.24.88-.75.51-1.53,1-2.35,1.49a.47.47,0,0,0-.17.2.14.14,0,0,1,0,.06.42.42,0,0,0,0,.22v0l0,.06,0,.07a6.65,6.65,0,0,0,1.37,1.35l0,0a.41.41,0,0,0,.19,0,.39.39,0,0,0,.32-.16.36.36,0,0,0,.07-.17A.41.41,0,0,0,48,55l-.15-.12h0a5.92,5.92,0,0,1-.79-.75h0c1-.59,1.87-1.19,2.74-1.81a33.78,33.78,0,0,0,3.35-2.72l.27-.25.52-.51a18.93,18.93,0,0,0,4-5.55,9.75,9.75,0,0,0,.58-1.63,3.42,3.42,0,0,1,1,1.7,6.49,6.49,0,0,1-.92,3.74,2.74,2.74,0,0,1-.89.8.35.35,0,0,0-.17.19.42.42,0,0,0,0,.16.36.36,0,0,0,.06.2s0,0,0,0a.49.49,0,0,0,.13.12,6.28,6.28,0,0,0,.81.36,6.45,6.45,0,0,0,2.22.43,4.27,4.27,0,0,0,1.06-.13,3.62,3.62,0,0,0,.83-.31l.19-.1a3.18,3.18,0,0,1-.11,1.82l0,.09a.4.4,0,0,0,.06.3.43.43,0,0,0,.14.13.45.45,0,0,0,.19,0h0a4.24,4.24,0,0,0,.49-.06c1.36-.19,5-1.07,5.48-4.75a5.26,5.26,0,0,0-.1-1.59l.1.09a2.13,2.13,0,0,1,.72,1.3.38.38,0,0,0,.13.26h0l.08.06h0l.07,0h.09l.13,0,.07,0a5.64,5.64,0,0,0,2.56-3.81,5.15,5.15,0,0,0-.33-2.54h0l.19-.12.1-.06.24-.18a5.52,5.52,0,0,0,1.37-1.52A6.26,6.26,0,0,0,75,37.19a7.14,7.14,0,0,0,.37-1.43,8.57,8.57,0,0,0,.11-1.46,9.72,9.72,0,0,0-.07-1.11,6.87,6.87,0,0,0-.84-2.67,5.34,5.34,0,0,0-1.06-1.3,6.34,6.34,0,0,0-3.67-1.51l-.55,0h0a5.81,5.81,0,0,0,.3-1.12,5.67,5.67,0,0,0,.07-1,4.18,4.18,0,0,0-.22-1.31,2.91,2.91,0,0,0-1.17-1.53,2.5,2.5,0,0,0-.8-.36,3.72,3.72,0,0,0-2.36.22,6.1,6.1,0,0,0-1.18.68l-.31.25a2.59,2.59,0,0,0-.31-.41.8.8,0,0,0-.13-.13,1.89,1.89,0,0,0-.31-.25h0l.13,0a.37.37,0,0,0,.33-.15s2.38-3,5.34-3C74.31,19.32,76,26.91,76,27a.42.42,0,0,0,.13.21h0a.41.41,0,0,0,.24.08h.08a62.43,62.43,0,0,0,1.13,9.79h0a33.46,33.46,0,0,0,1.18,4.32,15.47,15.47,0,0,0,2.08,4.08v0a6.07,6.07,0,0,0,3,2.22,5.93,5.93,0,0,0,.73.16,4.51,4.51,0,0,1-.27.72A5.42,5.42,0,0,1,82.16,51l-.24.14a.39.39,0,0,0-.2.4.34.34,0,0,0,0,.14v0a.41.41,0,0,0,.22.17l.12,0a.45.45,0,0,0,.19-.05,8.12,8.12,0,0,0,.72-.46l.16-.12,0,0a6.22,6.22,0,0,0,1.48-1.68,5.48,5.48,0,0,0,.43-.89,5.05,5.05,0,0,0,.29-1,.42.42,0,0,0-.08-.28l0,0h0v0a.44.44,0,0,0-.16-.1h-.11a4,4,0,0,1-1.93-.58,5.64,5.64,0,0,1-.63-.46,5.9,5.9,0,0,1-.57-.55l.46-.11a17.84,17.84,0,0,0,2.65-.9c5.8-2.5,6.91-7.07,7-7.32v0a.45.45,0,0,1,0-.08,12.53,12.53,0,0,0-.6-8.41.62.62,0,0,1,.12-.63l0,0h0A1.86,1.86,0,0,1,93,27.73a3.63,3.63,0,0,1,.84.2,4.54,4.54,0,0,1,.77.36,5.23,5.23,0,0,1,2.13,2.46,8.05,8.05,0,0,1,.62,2.17A12.5,12.5,0,0,1,97.46,35a.39.39,0,0,0,.38.41.34.34,0,0,0,.2,0h0c3.68-2,11-2.13,14.33-.76a3.62,3.62,0,0,1,1.36.85A1.16,1.16,0,0,1,114,36c.16.52-.28.89-1.34,1.32-.53.21-1.22.45-2.08.72l-.66-.08a26.35,26.35,0,0,0-2.86-.12.41.41,0,0,0-.22.07.38.38,0,0,0-.15.22.25.25,0,0,0,0,.12.39.39,0,0,0,.18.33.43.43,0,0,0,.22.06h0c4.22-.05,7.83.95,9.36,2.44a2.53,2.53,0,0,1,.74,1.24,1.14,1.14,0,0,1,0,.44.71.71,0,0,1-.09.24c-.4.58-1.91.83-4,1.16l-.1,0-.87-.25c-.45-.11-.93-.22-1.43-.3a.31.31,0,0,0-.19,0,.41.41,0,0,0-.27.31.4.4,0,0,0,.33.46,16.58,16.58,0,0,1,2.55.65c2,.7,3.17,1.72,3.17,2.84a.49.49,0,0,1,0,.23h0l0,0a.67.67,0,0,1-.35.14l-.4,0a17.5,17.5,0,0,1-1.76-.09c-1-.07-2.16-.16-3.52-.15-.47,0-1,0-1.48,0l-.55,0-1,.08c-.55.07-1.13.15-1.73.25l-.34.07a33.88,33.88,0,0,0-12.5,5.37l-.07.05-.68.46-.72.51h0c-.63.4-1.24.83-1.85,1.29a31,31,0,0,0-2.53,2.13,38.39,38.39,0,0,0-3.14,3.32c-.5.61-1,1.24-1.49,1.89a16.24,16.24,0,0,0-3.08,11.85c.05.37.1.75.16,1.12l.54-.36L80,76l-.09-.67a15.38,15.38,0,0,1,2.93-11.27,38.15,38.15,0,0,1,4-4.59,32.4,32.4,0,0,1,2.61-2.29c.73-.57,1.47-1.1,2.22-1.58C95.24,53,102,48.13,113.65,49c1.61.12,2.58.19,3.11-.29a1.12,1.12,0,0,0,.34-.87c0-1.24-.94-2.34-2.63-3.15,1.73-.3,2.82-.59,3.3-1.3a1.58,1.58,0,0,0,.2-1.3M19.25,25.72a11.9,11.9,0,0,1-.4-2.39c0-.13,0-.25,0-.38s.07-.43.11-.65a5.38,5.38,0,0,0,0-2.73.27.27,0,0,1,0-.12,2.4,2.4,0,0,1,.68-1.52,12.38,12.38,0,0,1,1.78-1.77,6.26,6.26,0,0,1,3.44-.88H25a7.58,7.58,0,0,1,.84.05h0a2.45,2.45,0,0,1,1.38.51.52.52,0,0,1,.1.11A2.18,2.18,0,0,0,29.5,17a2.11,2.11,0,0,1,.52,0c.48.13,3.53,1.47,5.57,2.4L35,20.76c-.42,1-.86,1.93-1.35,2.9l-.1.22-.48.5v0a18.82,18.82,0,0,1-2.46,2.09l-.17.12-.42.28-.64.4a18,18,0,0,1-1.88,1l-.41.19-.52.22-.09,0a21.64,21.64,0,0,1-2.79.89h0l-.36.09a19.47,19.47,0,0,1-3.34.49s0-.08,0-.12a13.05,13.05,0,0,0-.33-2.41c-.1-.47-.21-1-.34-1.55l-.09-.41m25.67,1.5,0,0h0A6.05,6.05,0,0,0,40.19,31c-.07.15-.13.3-.19.46s-.24.67-.35,1.07h0l0,0h0l-.86.84c-1.14,1.11-2.29,2.21-3.43,3.27L33.94,38C26,45.2,20.57,48.37,17,49.7a10.7,10.7,0,0,1-4.67.89,7.21,7.21,0,0,1-3.1-1,7.31,7.31,0,0,1-3.35-7.29c.28-3.06,1.42-4.48,1.93-5l0,0h0a.65.65,0,0,1,.32-.16C9.5,36.92,16,35.85,19.45,34h0c0,.13.05.25.07.37.1.45.2.88.3,1.28s.24.92.32,1.22h0a21.14,21.14,0,0,1-4.2,1.21h-.06a9.35,9.35,0,0,1-5.33-.42.29.29,0,0,0-.22,0h0a.36.36,0,0,0-.29.23.42.42,0,0,0,0,.33.41.41,0,0,0,.2.19,6,6,0,0,0,.56.22,7.85,7.85,0,0,0,1.35.33,10,10,0,0,0,1.63.12,21.18,21.18,0,0,0,9.36-2.66c8.08-4.15,11.38-12.16,14-18.61.31-.77.62-1.51.92-2.22a25.81,25.81,0,0,1,2.25-4.39l.09-.12a11,11,0,0,1,3.23-3.21,5.38,5.38,0,0,1,1.07-.49l0,0L45,7.27l.12,0h.09a3.86,3.86,0,0,1,1-.08,4.61,4.61,0,0,1,3.45,2.31,9.93,9.93,0,0,1,.64,1.08,15.79,15.79,0,0,1,1.17,3.19c0,.13.06.25.08.38a9.28,9.28,0,0,1-.33,5.12,9.39,9.39,0,0,1-1.85,3.13l-.09.1c-1.15,1.28-2.58,2.87-4.38,4.76M71.48,44.38a5.37,5.37,0,0,1-1.07,1.16,3.11,3.11,0,0,0-.87-1.22,4,4,0,0,0-.91-.63c0-.11-.07-.22-.11-.34s-.14-.38-.22-.58a.08.08,0,0,1,0,0,.41.41,0,0,0-.4-.2l-.1,0a.43.43,0,0,0-.24.29.36.36,0,0,0,0,.23,8.05,8.05,0,0,1,.71,3c0,.11,0,.22,0,.32a4.15,4.15,0,0,1-.6,1.73,4.33,4.33,0,0,1-1.47,1.41c-.21.12-.42.23-.66.34a7.28,7.28,0,0,1-.88.32,8.63,8.63,0,0,1-1,.23h0c0-.05,0-.11,0-.17a5.28,5.28,0,0,0-.14-1.9l.3-.34a.41.41,0,0,0-.07-.56.39.39,0,0,0-.34-.07.4.4,0,0,0-.22.14A3.08,3.08,0,0,1,60,48.54a5.07,5.07,0,0,1-.87-.2L59,48.28l-.27-.1h0a3.8,3.8,0,0,0,.69-.81A6.1,6.1,0,0,0,60.21,45a2.16,2.16,0,0,0,1.94,1.24,3,3,0,0,0,2.21-1.26c.31-.36.61-.76.9-1.16l.26-.35c.8-1.09,1.66-2.1,2.87-2.1a8.71,8.71,0,0,0,3-.52l.52-.21a4.77,4.77,0,0,1,.26,1.09,3.83,3.83,0,0,1,0,.47,4,4,0,0,1-.68,2.23M69.67,28.49c.22,0,.47.05.74.1A5.37,5.37,0,0,1,73,29.81a5.5,5.5,0,0,1,.56.62,4.52,4.52,0,0,1,.58,1,7.44,7.44,0,0,1,.56,2.89,9.19,9.19,0,0,1-.07,1.08,7.81,7.81,0,0,1-.21,1,5.64,5.64,0,0,1-.68,1.53,6.21,6.21,0,0,1-5.38,2.58c-1.75,0-2.83,1.48-3.78,2.78-.78,1.08-1.52,2.1-2.46,2.1A1.34,1.34,0,0,1,61,44.73a8.29,8.29,0,0,1-.71-1.51c-.15-.38-.31-.77-.49-1.13-.06-.11-.12-.23-.19-.34h.54a7.24,7.24,0,0,0,3.13-.71,9.68,9.68,0,0,0,3.47-2.9c.26-.34.49-.67.7-1s.53-.89.72-1.27.28-.56.37-.77a.39.39,0,0,0,.29.13H69a.38.38,0,0,0,.28-.34.06.06,0,0,0,0,0v0s0,0,0-.08a1.05,1.05,0,0,0-.63-.71,1.72,1.72,0,0,0-.94-.13.36.36,0,0,0-.28.18.64.64,0,0,0-.06.18v0s0,0,0,0a.36.36,0,0,0,.18.29l.11,0h.26c-.11.25-.28.61-.51,1a12.52,12.52,0,0,1-2.31,3.14A7,7,0,0,1,60.16,41c-.34,0-.64,0-.92,0l-.45-.06-.31,0-.09,0-.16,0-.66-.17-.2-.06-.27-.07a6,6,0,0,0-1.72-.27c-.87,0-1.37.7-1.77,1.44l-.24.45a6.18,6.18,0,0,1-.42.77c-.19.29-.38.49-.6.49-.68,0-1.51-2.05-2.09-4.46-.22-.92-.4-1.89-.53-2.82l-.06-.54a16.49,16.49,0,0,1-.11-1.79h0a13.26,13.26,0,0,1,.54-4.28A3.77,3.77,0,0,1,54,26.75a11.61,11.61,0,0,1,7.16,2.81,4,4,0,0,0,.18.64,2.9,2.9,0,0,0,1.13,1.44,2.93,2.93,0,0,0,1.6.46,4,4,0,0,0,.76-.08c.15,0,.29-.08.44-.12l.36-.13a6.38,6.38,0,0,0,2.23-1.63,8.91,8.91,0,0,0,.69-.9c.09-.15.18-.3.26-.45s.12-.21.17-.32.39,0,.68,0m-5.22-4.61a4.83,4.83,0,0,1,1-.57A3.24,3.24,0,0,1,66.71,23a2.33,2.33,0,0,1,.53.07,2,2,0,0,1,.64.26,2.52,2.52,0,0,1,.35.3,2.82,2.82,0,0,1,.68,1.9h0a5.64,5.64,0,0,1-.66,2.6q-.16.31-.36.63a8.05,8.05,0,0,1-.49.66A6,6,0,0,1,66,30.69a5.17,5.17,0,0,1-.66.34A3.24,3.24,0,0,1,64,31.3,2.1,2.1,0,0,1,62.91,31a2.39,2.39,0,0,1-1-1.63,5,5,0,0,1-.06-.56h0a5.85,5.85,0,0,1,1-3.24,6.51,6.51,0,0,1,1.55-1.66m-1.39.18-.12.13a9.21,9.21,0,0,0-.71.91,7.94,7.94,0,0,0-.54,1c0,.1-.09.21-.14.32h0a.7.7,0,0,0-.21-.11h0a.36.36,0,0,1,0,.11.37.37,0,0,1-.16.3.36.36,0,0,1-.56-.28v0a.69.69,0,0,0-.17.17.73.73,0,0,0-.15.35s0,.08,0,.12h0a1.36,1.36,0,0,0,.06.29l0,.06a.8.8,0,0,0,.7.43h.08s0,.06,0,.09,0,.34,0,.5v0l-.33-.24a12.73,12.73,0,0,0-3-1.58l-.06,0a1.83,1.83,0,0,1,.08-.25,5.71,5.71,0,0,1,.48-1c0-.05.07-.11.11-.17,1.12-1.72,3-2.53,4.07-1.8a1.82,1.82,0,0,1,.38.35,2.39,2.39,0,0,1,.21.34M76.7,26.44a14.71,14.71,0,0,0-1.56-3.71,8.1,8.1,0,0,0-3.69-3.46l0,0L71,19.08l-.15,0a6.44,6.44,0,0,0-2.11-.26c-2.85,0-5.11,2.33-5.76,3.09-1-.35-4.63-1.34-7.39,1h0c0-1.18.09-3.33,1.24-4.64a3.43,3.43,0,0,1,2.71-1.11,7.35,7.35,0,0,1,3,.62,3.11,3.11,0,0,1,.41.2.43.43,0,0,0,.4,0,.4.4,0,0,0,.14-.15.51.51,0,0,0,0-.27.44.44,0,0,0-.17-.25h0l0,0h0l-.4-.19-.3-.13h0A5.72,5.72,0,0,0,59,14.49a5.17,5.17,0,0,0-1.07-.11h0a7.65,7.65,0,0,1,6.2-3,4.26,4.26,0,0,1,.89.1c3.49.77,5.34,5.82,5.36,5.87a.41.41,0,0,0,.25.25l.12,0A.44.44,0,0,0,71,17.5a.41.41,0,0,0,.08-.3.31.31,0,0,0,0-.08s0-.11-.11-.28-.29-.68-.55-1.19a2.12,2.12,0,0,0-.11-.21,3.33,3.33,0,0,0,.13-.76,4.29,4.29,0,0,0-.34-2.07,2.72,2.72,0,0,0-.16-.35,8.2,8.2,0,0,1,6.67,6.93,10.16,10.16,0,0,1,.09,1.59.4.4,0,0,0,.18.35.47.47,0,0,0,.21.06h0a.39.39,0,0,0,.31-.15.34.34,0,0,0,.09-.24c0-.22,0-.44,0-.65a4.36,4.36,0,0,0,0-.51,1.83,1.83,0,0,0,.28-.28,3,3,0,0,0,.6-1h0c.56,1.54,1.22,4.21.21,6.48a2.61,2.61,0,0,1-1.86,1.57h0"/><path class="cls-3" d="M89.45,57.17a30.52,30.52,0,0,0-2.6,2.28A23.9,23.9,0,0,1,80,76V76l-.19.13a23.92,23.92,0,0,1-37.91-5.42c-.34-.62-.66-1.26-.94-1.91a24,24,0,0,1-1-16.39c-.7-.76-1.41-1.47-2.13-2.14a26.64,26.64,0,0,0,5.56,27l.3.31.4.41A26.62,26.62,0,0,0,89.53,59.24c0-.69,0-1.39-.08-2.07"/></g></g></svg>